<?xml version="1.0" standalone="no"?><!DOCTYPE svg PUBLIC "-//W3C//DTD SVG 1.1//EN" "http://www.w3.org/Graphics/SVG/1.1/DTD/svg11.dtd"><svg t="1768709429296" class="icon" viewBox="0 0 1024 1024" version="1.1" xmlns="http://www.w3.org/2000/svg" p-id="4935" xmlns:xlink="http://www.w3.org/1999/xlink" width="200" height="200"><path d="M121.46505956 980.41719467c32.30378667-6.30784 62.881792-6.30784 91.734016 0 43.27560533 9.45902933 158.38958933 50.511872 291.68981333-52.84386133 133.300224-103.350272 202.67008-285.25090133 202.67008-317.46184534 0-32.210944 65.39400533 60.489728 164.35882667 235.39438934 65.667072 21.66510933 98.49514667 3.64270933 98.49514666-54.050816 0-57.69898667-14.30869333-110.215168-42.942464-157.548544 28.62830933-116.506624-9.24603733-186.61376-113.63396266-210.31594667-43.61966933-25.17128533-84.30114133-26.58577067-122.044416-4.24891733-37.748736 22.33685333-76.52420267 29.68234667-116.33186134 22.02555733-98.56068267-48.25634133-166.019072-57.360384-202.36970666-27.30666667C300.34011022 396.054528 235.04440889 422.498304 177.20888889 493.39733334c-86.75328 106.348544-131.70005333 158.84288-109.22666667 184.19985066 22.47338667 25.35697067 76.83003733 34.16064 145.21685334-60.07466666 68.38135467-94.23530667 135.60490667-129.662976 159.891456-115.376128C397.37708089 516.43323734 395.66222222 676.76706134 286.43555556 736.841728l-109.22666667 108.66414934-84.30660267 4.90427733c-3.31502933 24.9856-3.31502933 45.006848 0 60.07466667 3.309568 15.07328 12.83413333 38.37678933 28.56277334 69.93237333z" fill="#DAB156" p-id="4936"></path><path d="M691.79209956 419.34165334c37.74327467-22.33685333 78.42474667-20.91690667 122.044416 4.24891733 104.38792533 23.70218667 142.26773333 93.80932267 113.63396266 210.31594667 2.05892267 3.407872 4.046848 6.84305067 5.963776 10.305536-14.286848 107.83402667-19.27850667 96.72021333-14.98589866-33.33051734 5.65248-171.35479467-71.77284267-203.27082667-232.28142934-95.73717333l-44.70101333-56.000512 25.12213333-27.17559467a195.28635733 195.28635733 0 0 0 25.20405334-12.62660266z" fill="#FEE3BC" p-id="4937"></path><path d="M81.95777422 860.86314667c-31.55012267 54.32388267 0 114.89553067 45.52567467 114.89553067 18.32277333 0 56.79786667-9.53002667 83.66762667 0 82.48797867 29.25636267 196.30216533 14.11754667 293.73781333-54.35118934 106.33216-74.72196267 219.037696-241.13425067 195.19351467-415.89691733-4.24891733-31.16782933-10.30007467-264.39953067-85.966848-381.44682667-46.78724267-72.368128-120.54254933-116.64315733-169.41056-109.65265066-60.74641067 8.69444267-70.16721067 96.51268267-54.04535467 182.65975466 44.83208533 139.12746667 62.84356267 240.81749333 54.03989333 305.07554134 0 160.91818667-192.59392 266.55675733-247.758848 326.975488-84.525056 21.16266667-122.85269333 31.74126933-114.982912 31.74126933z" fill="#FFEFC9" p-id="4938"></path><path d="M365.78872889 441.36721067c22.71368533-50.37533867 65.11547733-62.96917333 127.21629867-37.781504 62.10082133 25.18766933 62.10082133 127.03061333 0 305.53429333L431.82171022 482.83511467l-66.02752-41.467904z" fill="#DFBF91" p-id="4939"></path><path d="M551.77443556 633.90651734c-195.71234133 200.84599467-355.13412267 300.466176-478.265344 298.860544-7.20896-21.037056-5.947392-47.120384 8.44868266-71.90391467-7.86978133 0 30.457856-10.57860267 114.982912-31.74126933 55.15946667-60.41873067 247.758848-166.05730133 247.758848-326.97002667 8.80366933-64.26350933-9.207808-165.953536-54.03989333-305.08100267-11.58894933-61.898752-9.98331733-124.665856 14.37422933-158.32405333 136.89924267 76.75904 185.810944 275.14197333 146.74056534 595.15972267z" fill="#FAD785" p-id="4940"></path><path d="M921.06979556 617.52251734c2.441216 4.62574933 4.78958933 9.191424 7.05058133 13.70794666l-0.64989867 2.67605334a298.860544 298.860544 0 0 1 16.05632 30.326784 460.374016 460.374016 0 0 1 12.42999467 32.03072c9.63925333 29.98272 14.45614933 61.71306667 14.45614933 95.19104l-0.01092266-2.342912c-2.48490667 24.363008-11.49610667 44.48256-27.0336 60.358656-8.88558933 4.161536-19.96117333 5.67432533-33.22129067 4.54382933-70.08529067-82.65181867-105.119744-138.28096-105.119744-166.887424 0-30.05371733-33.90395733-63.02378667-101.71733333-98.90474667L504.88888889 610.87607467c47.52452267-77.80215467 113.66673067-106.99844267 198.42116267-87.59432533 78.45205333-63.67914667 151.03863467-32.26555733 217.759744 94.23530666z" fill="#F8D394" p-id="4941"></path><path d="M832.56888889 704.90385067c20.50730667 45.64036267 53.116928 95.141888 97.83432533 148.51003733-15.171584 2.588672-34.668544-0.05461333-58.48541866-7.90801066-98.96482133-174.90466133-164.364288-267.60533333-164.364288-235.39438934 0 32.210944-69.35893333 214.11157333-202.66461867 317.46184534-133.300224 103.35573333-248.414208 62.30289067-291.68981333 52.84386133-28.852224-6.30784-59.43022933-6.30784-91.734016 0-15.72864-31.555584-25.25320533-54.86455467-28.56277334-69.93237333a94.05508267 94.05508267 0 0 1-1.29979733-7.340032c60.02005333-26.10517333 191.61088-113.14244267 394.76155733-261.10088534 103.76533333-218.45333333 312.885248-11.28311467 346.20484267 62.85994667z" fill="#E7AE52" p-id="4942"></path><path d="M177.20888889 493.39733334c57.83552-70.89902933 123.13122133-97.34280533 195.88164267-79.33678934l-1.92238934-0.46421333-3.10749866 9.99424c114.08725333 53.149696 149.62961067 137.13954133 106.62161066 251.969536l-1.327104 3.49525333-104.91221333-39.56736c24.82722133-62.75072 19.791872-128.434176 4.64759467-137.34161066-24.28654933-14.286848-91.51010133 21.14082133-159.891456 115.376128-68.386816 94.23530667-122.74346667 85.43163733-145.21685334 60.07466666-22.47338667-25.35697067 22.47338667-77.85130667 109.22666667-184.19985066z" fill="#F0C997" p-id="4943"></path><path d="M386.26326756 474.13521067c54.38941867 1.41448533 87.752704 57.38222933 100.10624 167.90869333 12.34261333 110.526464-63.54807467 196.55338667-227.688448 258.07530667l-165.658624 10.911744-0.12014934-0.54613333c-3.17303467-14.43976533-3.309568-33.42882133-0.39867733-56.97809067l0.39867733-3.096576 72.14421334-10.92266667L286.43555556 736.841728c109.22666667-60.07466667 110.94152533-220.40849067 86.654976-234.69533866-24.28654933-14.286848-91.51010133 21.14082133-159.891456 115.376128-67.08701867 92.44945067-120.67362133 85.73201067-143.90613334 61.50007466 18.92898133 3.52256 72.0896 5.82178133 141.46491734-96.944128 55.32330667-81.95822933 113.82510933-117.93749333 175.505408-107.94325333z" fill="#D79C48" p-id="4944"></path><path d="M122.90685156 980.80494934l-0.07099734 0.20206933c-42.98069333-3.948544-71.34685867-62.23189333-40.87808-114.68253867-4.01408 0 3.97585067-2.74705067 23.95886934-8.24661333 27.25205333 31.73034667 32.915456 72.63573333 16.98474666 122.72708267z" fill="#6E5F5F" p-id="4945"></path></svg>